<?xml version="1.0" encoding="utf-8"?>
<!-- Generator: Adobe Illustrator 24.1.0, SVG Export Plug-In . SVG Version: 6.00 Build 0)  -->
<svg version="1.1" id="Layer_1" xmlns:sketch="http://www.bohemiancoding.com/sketch/ns"
	 xmlns="http://www.w3.org/2000/svg" xmlns:xlink="http://www.w3.org/1999/xlink" x="0px" y="0px" viewBox="0 0 225 28"
	 style="enable-background:new 0 0 225 28;" xml:space="preserve">
<style type="text/css">
	.st0{fill-rule:evenodd;clip-rule:evenodd;fill:#DC8C1B;}
	.st1{fill-rule:evenodd;clip-rule:evenodd;fill:#FFFFFF;}
</style>
<desc>Created with Sketch.</desc>
<g id="Slices" sketch:type="MSPage">
	<g id="Logotype---Future" transform="translate(-1455.000000, -190.000000)" sketch:type="MSArtboardGroup">
		<g id="Standard-Mark---Dark" transform="translate(1455.000000, 190.000000)" sketch:type="MSLayerGroup">
			<g id="mturk-long-on-light" transform="translate(75.286807, 0.702432)" sketch:type="MSShapeGroup">
				<path id="mechanical-turk" class="st0" d="M-53.5,44.6v-8.2c0-1-0.2-1.8-0.6-2.3c-0.4-0.5-1-0.7-1.8-0.7c-1.5,0-3,0.5-4.4,1.5
					c0,0.4,0.1,0.8,0.1,1.1v8.5h-1.4v-8.2c0-1-0.2-1.8-0.6-2.3c-0.4-0.5-1-0.7-1.8-0.7c-1.5,0-2.9,0.5-4.3,1.5v9.7h-1.4V32.6h1.2
					l0.1,1.3c0.7-0.5,1.5-1,2.3-1.2c0.8-0.3,1.6-0.4,2.3-0.4c1.5,0,2.5,0.6,3,1.8c0.8-0.6,1.6-1,2.4-1.4c0.9-0.3,1.7-0.5,2.5-0.5
					c1.1,0,2,0.3,2.5,0.9c0.6,0.6,0.9,1.5,0.9,2.7v8.8H-53.5z M-43.4,44.4c-0.7,0.3-1.5,0.4-2.4,0.4c-0.9,0-1.7-0.3-2.2-0.8
					c-0.5-0.5-0.7-1.2-0.7-2.2v-8.1H-51v-1l2.3-0.2l0.2-3.5h1.1v3.5h3.9v1.2h-3.9v8c0,0.7,0.1,1.1,0.4,1.4s0.8,0.4,1.4,0.4
					c0.7,0,1.4-0.1,2.1-0.3V44.4z M-33.5,44.6l-0.1-1.3c-1.5,1.1-3.1,1.7-4.7,1.7c-1.2,0-2-0.3-2.7-0.9c-0.6-0.6-0.9-1.5-0.9-2.7
					v-8.7h1.4v8.2c0,1.1,0.2,1.8,0.6,2.3c0.4,0.5,1,0.7,1.9,0.7c0.8,0,1.5-0.1,2.2-0.4s1.4-0.6,2.2-1.2v-9.6h1.4v12.1H-33.5z
					 M-29.6,44.6V32.6h1.2l0.1,1.7c0.6-0.7,1.2-1.1,1.8-1.4c0.6-0.3,1.2-0.4,2-0.4c0.3,0,0.6,0,1,0.1v1.2c-0.4,0-0.8,0-1.1,0
					c-0.7,0-1.4,0.1-2,0.4s-1.1,0.7-1.7,1.3v9.2H-29.6z M-22.4,44.6V26.9h1.4v11l6-5.4h1.9l-6.4,5.7l6.8,6.4h-2l-6.3-5.9v5.9H-22.4z
					"/>
			</g>
			<g id="Amazon-on-light" transform="translate(0.000000, 5.837386)" sketch:type="MSShapeGroup">
				<path id="Fill-2" class="st1" d="M44.2,17.1c-4.1,3-10.1,4.7-15.3,4.7c-7.2,0-13.8-2.7-18.7-7.1c-0.4-0.3,0-0.8,0.4-0.6
					c5.3,3.1,11.9,4.9,18.7,4.9c4.6,0,9.6-0.9,14.3-2.9C44.3,15.9,44.9,16.6,44.2,17.1"/>
				<path id="Fill-3" class="st1" d="M46,15.2c-0.5-0.7-3.5-0.3-4.8-0.2c-0.4,0-0.5-0.3-0.1-0.6c2.4-1.7,6.3-1.2,6.7-0.6
					c0.5,0.6-0.1,4.4-2.3,6.3c-0.3,0.3-0.7,0.1-0.5-0.2C45.4,18.6,46.5,15.8,46,15.2"/>
				<path id="Fill-4" class="st1" d="M41.2,2.7V1.1c0-0.2,0.2-0.4,0.4-0.4l7.3,0c0.2,0,0.4,0.2,0.4,0.4v1.4c0,0.2-0.2,0.5-0.5,1
					L45,8.9c1.4,0,2.9,0.2,4.1,0.9c0.3,0.2,0.4,0.4,0.4,0.6v1.7c0,0.2-0.3,0.5-0.5,0.4c-2.2-1.2-5.2-1.3-7.7,0
					c-0.3,0.1-0.5-0.1-0.5-0.4v-1.6c0-0.3,0-0.7,0.3-1.1l4.4-6.2l-3.8,0C41.4,3.1,41.2,3,41.2,2.7"/>
				<path id="Fill-5" class="st1" d="M14.8,12.8h-2.2c-0.2,0-0.4-0.2-0.4-0.4V1.1c0-0.2,0.2-0.4,0.4-0.4h2.1c0.2,0,0.4,0.2,0.4,0.4
					v1.5h0c0.5-1.4,1.5-2.1,2.9-2.1c1.4,0,2.2,0.7,2.9,2.1c0.5-1.4,1.7-2.1,3-2.1c0.9,0,1.9,0.4,2.6,1.2C27.2,2.7,27,4.1,27,5.3
					l0,7.1c0,0.2-0.2,0.4-0.4,0.4h-2.2c-0.2,0-0.4-0.2-0.4-0.4v-6c0-0.5,0-1.7-0.1-2.1c-0.2-0.8-0.7-1-1.3-1c-0.5,0-1.1,0.4-1.3,0.9
					c-0.2,0.6-0.2,1.5-0.2,2.2v6c0,0.2-0.2,0.4-0.4,0.4h-2.2c-0.2,0-0.4-0.2-0.4-0.4v-6c0-1.3,0.2-3.1-1.4-3.1
					c-1.6,0-1.5,1.8-1.5,3.1v6C15.2,12.6,15,12.8,14.8,12.8"/>
				<path id="Fill-6" class="st1" d="M55.6,2.8c-1.6,0-1.7,2.2-1.7,3.6c0,1.4,0,4.3,1.7,4.3c1.7,0,1.8-2.4,1.8-3.8
					c0-0.9,0-2.1-0.3-3C56.8,3.1,56.3,2.8,55.6,2.8 M55.5,0.5c3.3,0,5,2.8,5,6.4c0,3.4-2,6.2-5,6.2c-3.2,0-5-2.8-5-6.3
					C50.6,3.2,52.4,0.5,55.5,0.5"/>
				<path id="Fill-7" class="st1" d="M64.8,12.8h-2.2c-0.2,0-0.4-0.2-0.4-0.4l0-11.3c0-0.2,0.2-0.4,0.4-0.4h2c0.2,0,0.4,0.1,0.4,0.3
					v1.7h0c0.6-1.5,1.5-2.3,3-2.3c1,0,2,0.4,2.6,1.3c0.6,0.9,0.6,2.4,0.6,3.5v7.1c0,0.2-0.2,0.4-0.4,0.4h-2.2
					c-0.2,0-0.4-0.2-0.4-0.4V6.3c0-1.2,0.1-3-1.4-3c-0.5,0-1,0.4-1.3,0.9c-0.3,0.7-0.4,1.4-0.4,2.1v6.1
					C65.3,12.6,65.1,12.8,64.8,12.8"/>
				<path id="Fill-8" class="st1" d="M37.7,12.8c-0.1,0.1-0.4,0.1-0.5,0.1c-0.7-0.6-0.9-0.9-1.3-1.5c-1.2,1.2-2.1,1.6-3.6,1.6
					c-1.9,0-3.3-1.1-3.3-3.4c0-1.8,1-3,2.4-3.6c1.2-0.5,2.9-0.6,4.2-0.8V4.9c0-0.5,0-1.1-0.3-1.6c-0.3-0.4-0.8-0.6-1.2-0.6
					c-0.8,0-1.6,0.4-1.8,1.3c0,0.2-0.2,0.4-0.4,0.4l-2.1-0.2c-0.2,0-0.4-0.2-0.3-0.5c0.5-2.6,2.8-3.4,4.9-3.4c1.1,0,2.5,0.3,3.3,1.1
					c1.1,1,1,2.3,1,3.8v3.4c0,1,0.4,1.5,0.8,2c0.1,0.2,0.2,0.4,0,0.6C38.9,11.7,38.1,12.4,37.7,12.8L37.7,12.8z M35.4,7.4
					c0,0.9,0,1.6-0.4,2.3c-0.4,0.6-0.9,1-1.5,1c-0.8,0-1.3-0.6-1.3-1.6c0-1.9,1.7-2.2,3.3-2.2V7.4z"/>
				<path id="Fill-9" class="st1" d="M8.7,12.8c-0.1,0.1-0.4,0.1-0.5,0.1c-0.7-0.6-0.9-0.9-1.3-1.5c-1.2,1.2-2.1,1.6-3.6,1.6
					C1.4,12.9,0,11.8,0,9.5c0-1.8,1-3,2.4-3.6c1.2-0.5,2.9-0.6,4.1-0.8V4.9c0-0.5,0-1.1-0.3-1.6C6,2.9,5.5,2.7,5,2.7
					C4.2,2.7,3.4,3.2,3.2,4c0,0.2-0.2,0.4-0.4,0.4L0.7,4.2C0.5,4.2,0.3,4,0.4,3.8c0.5-2.6,2.8-3.4,4.9-3.4c1.1,0,2.5,0.3,3.3,1.1
					c1.1,1,1,2.3,1,3.8v3.4c0,1,0.4,1.5,0.8,2c0.1,0.2,0.2,0.4,0,0.6C10,11.7,9.2,12.4,8.7,12.8L8.7,12.8z M6.5,7.4
					c0,0.9,0,1.6-0.4,2.3c-0.4,0.6-0.9,1-1.5,1c-0.8,0-1.3-0.6-1.3-1.6c0-1.9,1.7-2.2,3.3-2.2V7.4z"/>
			</g>
		</g>
	</g>
</g>
</svg>
